<?xml version="1.0" encoding="utf-8"?>
<!-- Generator: Adobe Illustrator 19.1.0, SVG Export Plug-In . SVG Version: 6.00 Build 0)  -->
<svg version="1.1" id="Layer_1" xmlns="http://www.w3.org/2000/svg" xmlns:xlink="http://www.w3.org/1999/xlink" x="0px" y="0px"
	 viewBox="0 0 83 83.1" style="enable-background:new 0 0 83 83.1;" xml:space="preserve">
<style type="text/css">
	.st0{clip-path:url(#SVGID_2_);}
	.st1{fill:#16C77C;}
	.st2{fill:#F40D74;}
	.st3{fill:#FC5B19;}
	.st4{fill:#D30074;}
	.st5{fill:#F23B3B;}
	.st6{fill:#E52000;}
	.st7{fill:#1291D4;}
	.st8{fill:#0B75AF;}
	.st9{fill:#2B5CA3;}
</style>
<g>
	<defs>
		<path id="SVGID_1_" d="M53.7,76.2c-2.5,4.6-5.5,6.8-9.7,6.8c-4.2,0-6.4-2-8.8-6.4C23.9,55.7,12,40.5,1.1,21.2
			C-12.9-3.8,14.9-1.5,43.8-1.5S98.2-5,86.5,21.2C76.7,43.2,60.8,63.3,53.7,76.2z"/>
	</defs>
	<clipPath id="SVGID_2_">
		<use xlink:href="#SVGID_1_"  style="overflow:visible;"/>
	</clipPath>
	<g class="st0">
		<rect x="-15.7" y="38.2" transform="matrix(0.477 0.8789 -0.8789 0.477 55.1782 -0.3044)" class="st1" width="87.2" height="16"/>
		<rect x="-2.5" y="41.2" transform="matrix(0.2935 0.956 -0.956 0.2935 71.9168 1.1112)" class="st2" width="75.4" height="16"/>
		<polygon class="st3" points="49.4,88.2 33.3,82.7 59.8,0 75,4.9 		"/>
		<polygon class="st4" points="48.6,84.5 53.6,81.8 50.1,70.4 19.8,14.5 16.5,15.5 35.3,76.7 40.8,86.9 		"/>
		<polygon class="st5" points="37.5,84.1 43.4,86.1 50.7,83.9 52.5,78.2 43.8,49.9 35.2,76.6 		"/>
		<polygon class="st6" points="52.5,78.2 50.1,70.4 42,55.5 35.2,76.6 35.3,76.7 39.7,84.9 43.4,86.1 48.6,84.5 50.9,83.3 		"/>
		<rect x="50" y="13.8" transform="matrix(0.88 0.475 -0.475 0.88 31.4156 -21.3753)" class="st7" width="16" height="75.3"/>
		<polygon class="st8" points="35.1,77 33.8,81.2 41.2,85.2 47.8,87.3 50.7,84 71.5,16 68.8,14.6 		"/>
		<polygon class="st9" points="37.2,83 43.1,86.2 49.4,84.3 52.6,78.4 46,56.9 35.3,76.7 		"/>
	</g>
</g>
</svg>
